<svg width="200" height="200" viewBox="0 0 200 200" xmlns="http://www.w3.org/2000/svg">
  <!-- Background Circle -->
  <circle cx="100" cy="100" r="90" fill="#2e7d32" />
  
  <!-- Inner Circle -->
  <circle cx="100" cy="100" r="80" fill="#ffffff" />
  
  <!-- RF Text -->
  <text x="100" y="105" font-family="Arial, sans-serif" font-size="60" font-weight="bold" text-anchor="middle" fill="#2e7d32">RF</text>
  
  <!-- Exports Text -->
  <text x="100" y="135" font-family="Arial, sans-serif" font-size="20" font-weight="bold" text-anchor="middle" fill="#ff8f00">EXPORTS</text>
  
  <!-- Fruit and Vegetable Icons -->
  <g transform="translate(50, 60) scale(0.15)">
    <!-- Apple -->
    <path d="M170,110 C170,85 180,50 215,30 C235,20 260,20 280,30 C300,40 310,60 320,80 C330,60 350,30 380,30 C410,30 430,50 440,70 C450,90 450,110 450,130 C450,190 410,250 360,280 C340,295 320,300 300,300 C280,300 260,295 240,280 C190,250 170,160 170,110 Z" fill="#d32f2f" />
    <path d="M300,30 L300,0 L320,0 L320,30 Z" fill="#2e7d32" stroke="#2e7d32" stroke-width="5" />
  </g>
  
  <g transform="translate(120, 60) scale(0.15)">
    <!-- Carrot -->
    <path d="M250,50 C270,30 290,20 310,20 C330,20 350,30 370,50 C390,70 400,90 400,110 C400,130 390,150 370,170 L250,290 C230,310 210,320 190,320 C170,320 150,310 130,290 C110,270 100,250 100,230 C100,210 110,190 130,170 Z" fill="#ff8f00" />
    <path d="M310,20 C330,0 350,-10 370,-10 C390,-10 410,0 430,20 C450,40 460,60 460,80 C460,100 450,120 430,140 L410,160 L340,90 L360,70 C380,50 390,30 390,10 C390,-10 380,-30 360,-50 L310,20 Z" fill="#2e7d32" />
  </g>
  
  <!-- Decorative Circles -->
  <circle cx="40" cy="160" r="10" fill="#ff8f00" />
  <circle cx="160" cy="160" r="10" fill="#ff8f00" />
  <circle cx="40" cy="40" r="10" fill="#ff8f00" />
  <circle cx="160" cy="40" r="10" fill="#ff8f00" />
</svg>
